<svg xmlns="http://www.w3.org/2000/svg" viewBox="0 0 64 64">
  <defs>
    <style>
      .accent { fill: #84cc16; }
      .bg-gradient { fill: url(#gradient); }
    </style>
    <linearGradient id="gradient" x1="0%" y1="0%" x2="100%" y2="100%">
      <stop offset="0%" style="stop-color:#6366f1;stop-opacity:1" />
      <stop offset="100%" style="stop-color:#9333ea;stop-opacity:1" />
    </linearGradient>
  </defs>
  <!-- Background circle with gradient -->
  <circle cx="32" cy="32" r="30" class="bg-gradient"/>
  <!-- Outer "exo" ring - even larger (+4 units) -->
  <circle
    cx="32"
    cy="32"
    r="30"
    fill="none"
    stroke="white"
    stroke-width="2.5"
    stroke-linecap="round"
    stroke-opacity="0.95"
  />
  <!-- Calendar main shape - even larger (+4 units) -->
  <rect
    x="14"
    y="12"
    width="36"
    height="38"
    rx="7"
    fill="none"
    stroke="white"
    stroke-width="2.5"
    stroke-linejoin="round"
    stroke-opacity="1"
  />
  <!-- Calendar rings on top - even larger -->
  <line
    x1="20"
    y1="8"
    x2="20"
    y2="13"
    stroke="white"
    stroke-width="2.5"
    stroke-linecap="round"
    stroke-opacity="1"
  />
  <line
    x1="44"
    y1="8"
    x2="44"
    y2="13"
    stroke="white"
    stroke-width="2.5"
    stroke-linecap="round"
    stroke-opacity="1"
  />
  <!-- Calendar slots: 3x3 grid - even larger (+4 units) -->
  <!-- Top row -->
  <rect x="18" y="20" width="7" height="7" rx="1.2"
        fill="white" fill-opacity="0.7" />
  <rect x="27" y="20" width="7" height="7" rx="1.2"
        fill="white" fill-opacity="0.7" />
  <rect x="36" y="20" width="7" height="7" rx="1.2"
        fill="white" fill-opacity="0.7" />
  <!-- Middle row -->
  <rect x="18" y="29" width="7" height="7" rx="1.2"
        fill="white" fill-opacity="0.7" />
  <rect x="27" y="29" width="7" height="7" rx="1.2"
        fill="white" fill-opacity="0.7" />
  <rect x="36" y="29" width="7" height="7" rx="1.2"
        fill="white" fill-opacity="0.7" />
  <!-- Bottom row: two regular + one branded slot -->
  <rect x="18" y="38" width="7" height="7" rx="1.2"
        fill="white" fill-opacity="0.7" />
  <rect x="27" y="38" width="7" height="7" rx="1.2"
        fill="white" fill-opacity="0.7" />
  <!-- Highlighted Appointexo slot - larger and more visible -->
  <rect x="36" y="38" width="7" height="7" rx="1.2"
        class="accent" />
</svg>
